%FSDAX44Y44*%
%MOMM*%
%SFA1B1*%

%IPPOS*%
%ADD17C,0.152400*%
%LNadapter_legend_top-1*%
%LPD*%
G54D17*
X00288798Y00347214D02*
X00293875D01*
X00291336*
Y00339598*
X00300223Y00347214D02*
X00297684D01*
X00296415Y00345945*
Y00340868*
X00297684Y00339598*
X00300223*
X00301493Y00340868*
Y00345945*
X00300223Y00347214*
X00311650D02*
Y00339598D01*
X00315458*
X00316728Y00340868*
Y00342136*
X00315458Y00343406*
X00311650*
X00315458*
X00316728Y00344675*
Y00345945*
X00315458Y00347214*
X00311650*
X00319267Y00339598D02*
Y00344675D01*
X00321806Y00347214*
X00324346Y00344675*
Y00339598*
Y00343406*
X00319267*
X00331963Y00345945D02*
X00330694Y00347214D01*
X00328154*
X00326885Y00345945*
Y00340868*
X00328154Y00339598*
X00330694*
X00331963Y00340868*
X00334502Y00347214D02*
Y00339598D01*
Y00342136*
X00339581Y00347214*
X00335772Y00343406*
X00339581Y00339598*
X00353546Y00347214D02*
X00351007D01*
X00349737Y00345945*
Y00340868*
X00351007Y00339598*
X00353546*
X00354816Y00340868*
Y00345945*
X00353546Y00347214*
X00362433D02*
X00357355D01*
Y00343406*
X00359894*
X00357355*
Y00339598*
X00380207Y00347214D02*
Y00342136D01*
X00382747Y00339598*
X00385286Y00342136*
Y00347214*
X00387825D02*
X00390364D01*
X00389095*
Y00339598*
X00387825*
X00390364*
X00394173Y00347214D02*
X00399251D01*
X00396712*
Y00339598*
X00401790D02*
Y00344675D01*
X00404330Y00347214*
X00406869Y00344675*
Y00339598*
Y00343406*
X00401790*
X00267459Y00440182D02*
X00259842D01*
X00262380Y00437642*
X00259842Y00435103*
X00267459*
X00259842Y00432564D02*
X00261112D01*
Y00431294*
X00259842*
Y00432564*
X00267459Y00426216D02*
X00259842D01*
X00262380Y00423676*
X00259842Y00421137*
X00267459*
X00259842Y00418598D02*
X00261112D01*
Y00417328*
X00259842*
Y00418598*
X00266189Y00407172D02*
X00267459Y00408441D01*
Y00410980*
X00266189Y00412250*
X00264919*
X00263650Y00410980*
Y00408441*
X00262380Y00407172*
X00261112*
X00259842Y00408441*
Y00410980*
X00261112Y00412250*
X00259842Y00404632D02*
X00261112D01*
Y00403363*
X00259842*
Y00404632*
X00468627Y00445770D02*
X00463548D01*
X00461010Y00443230*
X00463548Y00440691*
X00468627*
X00461010Y00438152D02*
Y00435612D01*
Y00436882*
X00468627*
X00467357Y00438152*
X00461010Y00431804D02*
X00462280D01*
Y00430534*
X00461010*
Y00431804*
X00467357Y00425456D02*
X00468627Y00424186D01*
Y00421647*
X00467357Y00420377*
X00462280*
X00461010Y00421647*
Y00424186*
X00462280Y00425456*
X00467357*
X00294640Y00373380D02*
X00295910Y00372110D01*
X00298448*
X00299717Y00373380*
Y00378457*
X00298448Y00379727*
X00295910*
X00294640Y00378457*
Y00377187*
X00295910Y00375918*
X00299717*
X00306070Y00378457D02*
X00307340Y00379727D01*
X00309878*
X00311147Y00378457*
Y00377187*
X00309878Y00375918*
X00311147Y00374648*
Y00373380*
X00309878Y00372110*
X00307340*
X00306070Y00373380*
Y00374648*
X00307340Y00375918*
X00306070Y00377187*
Y00378457*
X00307340Y00375918D02*
X00309878D01*
X00317500Y00379727D02*
X00322577D01*
Y00378457*
X00317500Y00373380*
Y00372110*
X00332737Y00379727D02*
X00330198Y00378457D01*
X00327660Y00375918*
Y00373380*
X00328930Y00372110*
X00331468*
X00332737Y00373380*
Y00374648*
X00331468Y00375918*
X00327660*
X00344167Y00379727D02*
X00339090D01*
Y00375918*
X00341628Y00377187*
X00342898*
X00344167Y00375918*
Y00373380*
X00342898Y00372110*
X00340360*
X00339090Y00373380*
X00353058Y00372110D02*
Y00379727D01*
X00349250Y00375918*
X00354327*
X00360680Y00378457D02*
X00361950Y00379727D01*
X00364488*
X00365757Y00378457*
Y00377187*
X00364488Y00375918*
X00363218*
X00364488*
X00365757Y00374648*
Y00373380*
X00364488Y00372110*
X00361950*
X00360680Y00373380*
X00377187Y00372110D02*
X00372110D01*
X00377187Y00377187*
Y00378457*
X00375918Y00379727*
X00373380*
X00372110Y00378457*
X00384810Y00372110D02*
X00387348D01*
X00386080*
Y00379727*
X00384810Y00378457*
X00262888Y00529590D02*
X00264158D01*
Y00530860*
X00262888*
Y00529590*
X00264158Y00528321*
X00266697*
X00267966Y00529590*
Y00532130*
X00266697Y00533400*
X00261620*
X00260350Y00532130*
Y00528321*
X00266697Y00520703D02*
X00267966Y00521973D01*
Y00524512*
X00266697Y00525782*
X00261620*
X00260350Y00524512*
Y00521973*
X00261620Y00520703*
X00264158*
Y00523242*
X00265427Y00516894D02*
Y00514355D01*
X00264158Y00513086*
X00260350*
Y00516894*
X00261620Y00518164*
X00262888Y00516894*
Y00513086*
X00267966Y00505468D02*
X00260350D01*
Y00509277*
X00261620Y00510546*
X00264158*
X00265427Y00509277*
Y00505468*
X00260350Y00501659D02*
Y00499120D01*
X00261620Y00497850*
X00264158*
X00265427Y00499120*
Y00501659*
X00264158Y00502929*
X00261620*
X00260350Y00501659*
X00265427Y00495311D02*
X00260350D01*
X00262888*
X00264158Y00494042*
X00265427Y00492772*
Y00491502*
Y00486424D02*
Y00483885D01*
X00264158Y00482615*
X00260350*
Y00486424*
X00261620Y00487694*
X00262888Y00486424*
Y00482615*
X00265427Y00474998D02*
Y00478807D01*
X00264158Y00480076*
X00261620*
X00260350Y00478807*
Y00474998*
X00267966Y00472459D02*
X00260350D01*
X00264158*
X00265427Y00471189*
Y00468650*
X00264158Y00467380*
X00260350*
X00467357Y00523241D02*
X00468627Y00524510D01*
Y00527050*
X00467357Y00528320*
X00466087*
X00464818Y00527050*
Y00524510*
X00463548Y00523241*
X00462280*
X00461010Y00524510*
Y00527050*
X00462280Y00528320*
X00468627Y00520702D02*
X00461010D01*
Y00516893*
X00462280Y00515623*
X00467357*
X00468627Y00516893*
Y00520702*
X00461010Y00508006D02*
Y00513084D01*
X00466087Y00508006*
X00467357*
X00468627Y00509275*
Y00511814*
X00467357Y00513084*
X00468627Y00505466D02*
X00463548D01*
X00461010Y00502927*
X00463548Y00500388*
X00468627*
Y00497849D02*
Y00495310D01*
Y00496579*
X00461010*
Y00497849*
Y00495310*
X00468627Y00491501D02*
Y00486423D01*
Y00488962*
X00461010*
Y00483883D02*
X00466087D01*
X00468627Y00481344*
X00466087Y00478805*
X00461010*
X00464818*
Y00483883*
M02*