%FSDAX44Y44*%
%MOMM*%
%SFA1B1*%

%IPPOS*%
%ADD10R,0.699999X1.400097*%
%ADD11R,1.279897X1.400097*%
%ADD12R,1.400097X1.999996*%
%ADD13R,1.174998X4.999990*%
%ADD14R,1.777996X1.400097*%
%ADD15C,0.253999*%
%ADD16C,1.269997*%
%LNadapter_copper_signal_top-1*%
%LPD*%
G36*
X00331670Y00383397D02*
X00336440D01*
Y00383905*
X00338034*
Y00380063*
X00338290Y00378775*
X00339020Y00377682*
X00361736Y00354966*
X00362829Y00354236*
X00364117Y00353980*
X00377857*
X00396258Y00335579*
Y00308732*
X00388740*
Y00317131*
X00389600Y00317487*
X00391351Y00318831*
X00392695Y00320582*
X00393539Y00322621*
X00393827Y00324809*
X00393539Y00326997*
X00392695Y00329036*
X00391351Y00330787*
X00389600Y00332131*
X00387561Y00332975*
X00385373Y00333264*
X00383185Y00332975*
X00381146Y00332131*
X00379395Y00330787*
X00378051Y00329036*
X00377207Y00326997*
X00376919Y00324809*
X00377207Y00322621*
X00378051Y00320582*
X00379395Y00318831*
X00381146Y00317487*
X00382006Y00317131*
Y00308732*
X00374490*
Y00320770*
X00374234Y00322059*
X00373504Y00323151*
X00371666Y00324990*
Y00331665*
X00372526Y00332021*
X00374277Y00333365*
X00375621Y00335116*
X00376465Y00337155*
X00376753Y00339344*
X00376465Y00341531*
X00375621Y00343570*
X00374277Y00345321*
X00372526Y00346665*
X00370487Y00347509*
X00368300Y00347797*
X00366111Y00347509*
X00364072Y00346665*
X00362321Y00345321*
X00360977Y00343570*
X00360133Y00341531*
X00359845Y00339344*
X00360133Y00337155*
X00360977Y00335116*
X00362321Y00333365*
X00364072Y00332021*
X00364932Y00331665*
Y00323596*
X00365189Y00322307*
X00365918Y00321214*
X00367757Y00319376*
Y00308732*
X00360241*
Y00331464*
X00359985Y00332752*
X00359255Y00333844*
X00349344Y00343756*
X00348251Y00344485*
X00346964Y00344742*
X00326006*
X00313949Y00356799*
X00314542Y00358001*
X00315976Y00357813*
X00318163Y00358101*
X00320202Y00358945*
X00321953Y00360289*
X00323297Y00362040*
X00324141Y00364079*
X00324429Y00366268*
X00324141Y00368455*
X00323297Y00370494*
X00321953Y00372245*
X00320202Y00373589*
X00319342Y00373945*
Y00376557*
X00321780Y00378994*
X00322509Y00380087*
X00322766Y00381375*
Y00383905*
X00324360*
Y00383397*
X00329130*
Y00392938*
X00331670*
Y00383397*
G37*
G36*
X00470634Y00387365D02*
X00444001D01*
X00442713Y00387109*
X00441621Y00386379*
X00440891Y00385287*
X00440634Y00383999*
Y00257527*
X00436031*
Y00308732*
X00431490*
Y00330129*
X00431234Y00331417*
X00430504Y00332510*
X00420782Y00342232*
X00419690Y00342961*
X00418402Y00343218*
X00406777*
X00401984Y00348011*
X00402470Y00349184*
X00413961*
X00414317Y00348324*
X00415661Y00346573*
X00417412Y00345229*
X00419451Y00344385*
X00421640Y00344097*
X00423827Y00344385*
X00425866Y00345229*
X00427617Y00346573*
X00428961Y00348324*
X00429805Y00350363*
X00430093Y00352552*
X00429805Y00354739*
X00428961Y00356778*
X00427617Y00358529*
X00425866Y00359873*
X00423827Y00360717*
X00421640Y00361005*
X00419451Y00360717*
X00417412Y00359873*
X00415661Y00358529*
X00414317Y00356778*
X00413961Y00355918*
X00400543*
X00387211Y00369250*
X00387737Y00370520*
X00392625*
X00392981Y00369660*
X00394325Y00367909*
X00396076Y00366565*
X00398115Y00365721*
X00400304Y00365433*
X00402491Y00365721*
X00404530Y00366565*
X00406281Y00367909*
X00407625Y00369660*
X00408469Y00371699*
X00408757Y00373888*
X00408469Y00376075*
X00407625Y00378114*
X00406281Y00379865*
X00404530Y00381209*
X00402491Y00382053*
X00400550Y00382309*
X00399891Y00383446*
X00401697Y00385252*
X00408561*
X00411797Y00382016*
X00411441Y00381155*
X00411153Y00378968*
X00411441Y00376779*
X00412285Y00374740*
X00413629Y00372989*
X00415380Y00371645*
X00417419Y00370801*
X00419608Y00370513*
X00421795Y00370801*
X00423834Y00371645*
X00425585Y00372989*
X00426929Y00374740*
X00427773Y00376779*
X00428061Y00378968*
X00427773Y00381155*
X00426929Y00383194*
X00425585Y00384945*
X00423834Y00386289*
X00421795Y00387133*
X00419608Y00387421*
X00417419Y00387133*
X00416558Y00386777*
X00412336Y00391000*
X00411243Y00391729*
X00409956Y00391986*
X00400304*
X00399015Y00391729*
X00397922Y00391000*
X00392200Y00385278*
X00390930Y00385804*
Y00396634*
X00433070*
Y00393557*
X00443230*
Y00403098*
Y00412637*
X00442367*
Y00489559*
X00444754*
Y00502099*
Y00514639*
X00442367*
Y00560634*
X00470634*
Y00387365*
G37*
G36*
X00284633Y00514639D02*
X00282194D01*
Y00502099*
Y00489559*
X00284633*
Y00415639*
X00282956*
Y00406099*
Y00396559*
X00290624*
X00291868Y00396495*
Y00383905*
X00294033*
Y00360966*
X00294290Y00359678*
X00295019Y00358585*
X00320006Y00333599*
X00319286Y00332522*
X00318671Y00332777*
X00316484Y00333065*
X00314295Y00332777*
X00312256Y00331933*
X00310505Y00330589*
X00309161Y00328838*
X00308317Y00326799*
X00308029Y00324612*
X00308317Y00322423*
X00309161Y00320384*
X00310505Y00318633*
X00312256Y00317289*
X00313116Y00316933*
Y00313814*
X00311743Y00312440*
X00311013Y00311348*
X00310757Y00310059*
Y00308732*
X00308289*
Y00309240*
X00301144*
Y00281700*
X00299874*
Y00280430*
X00291459*
Y00257527*
X00287366*
Y00383999*
X00287109Y00385287*
X00286380Y00386379*
X00285287Y00387109*
X00283999Y00387365*
X00257366*
Y00560634*
X00284633*
Y00514639*
G37*
G36*
X00405384Y00336484D02*
X00417007D01*
X00424757Y00328735*
Y00308732*
X00422289*
Y00309240*
X00415144*
Y00281700*
X00412604*
Y00309240*
X00405459*
Y00308732*
X00402992*
Y00335950*
X00403853Y00336567*
X00404262Y00336707*
X00405384Y00336484*
G37*
%LNadapter_copper_signal_top-2*%
%LPC*%
G36*
X00455930Y00401828D02*
X00445770D01*
Y00393557*
X00455930*
Y00401828*
G37*
G36*
X00455563Y00500829D02*
X00447294D01*
Y00489559*
X00455563*
Y00500829*
G37*
G36*
Y00514639D02*
X00447294D01*
Y00503369*
X00455563*
Y00514639*
G37*
G36*
X00455930Y00412637D02*
X00445770D01*
Y00404368*
X00455930*
Y00412637*
G37*
G36*
X00298604Y00309240D02*
X00291459D01*
Y00282970*
X00298604*
Y00309240*
G37*
G36*
X00280416Y00404829D02*
X00272746D01*
Y00396559*
X00280416*
Y00404829*
G37*
G36*
X00279654Y00514639D02*
X00271383D01*
Y00503369*
X00279654*
Y00514639*
G37*
G36*
X00280416Y00415639D02*
X00272746D01*
Y00407369*
X00280416*
Y00415639*
G37*
G36*
X00279654Y00500829D02*
X00271383D01*
Y00489559*
X00279654*
Y00500829*
G37*
%LNadapter_copper_signal_top-3*%
%LPD*%
G54D10*
X00297400Y00392938D03*
X00308398D03*
X00319399D03*
X00330400D03*
X00341400D03*
X00352399D03*
X00363399D03*
X00374400D03*
X00385398D03*
G54D11*
X00281686Y00406099D03*
G54D12*
X00280924Y00502099D03*
X00446024D03*
G54D13*
X00428124Y00281700D03*
X00413874D03*
X00399625D03*
X00385373D03*
X00371123D03*
X00356874D03*
X00342625D03*
X00328373D03*
X00314123D03*
X00299874D03*
G54D14*
X00444500Y00403098D03*
G54D15*
X00442398Y00498924D02*
Y00504811D01*
X00330400Y00394601D02*
X00332740Y00392261D01*
X00284400Y00499099D02*
Y00505030D01*
X00289968Y00269592D02*
X00299874D01*
Y00281700*
X00299212Y00294894D02*
X00299720Y00295402D01*
X00289814Y00294894D02*
X00299212D01*
X00299720Y00295402D02*
Y00325120D01*
X00272952Y00415639D02*
X00281686Y00406908D01*
Y00406099D02*
Y00406908D01*
X00272746Y00396559D02*
X00272861D01*
X00276860Y00400558*
Y00401273*
X00281686Y00406099*
X00450199Y00399288D02*
X00455930Y00393557D01*
X00448310Y00399288D02*
X00450199D01*
X00444500Y00403098D02*
X00448310Y00399288D01*
X00444500Y00403098D02*
X00446389D01*
X00455930Y00412637*
X00446024Y00499099D02*
X00455563Y00489559D01*
X00446024Y00499099D02*
Y00502099D01*
Y00505098D02*
X00455563Y00514639D01*
X00446024Y00502099D02*
Y00505098D01*
X00269748Y00487680D02*
X00280924Y00498856D01*
Y00502099*
X00271383Y00514639D02*
X00277622Y00508400D01*
Y00505401D02*
Y00508400D01*
Y00505401D02*
X00280924Y00502099D01*
X00385398Y00383712D02*
X00388366Y00380746D01*
X00385398Y00383712D02*
Y00392938D01*
X00388366Y00380746D02*
X00392430D01*
X00400304Y00388620D02*
X00409956D01*
X00392430Y00380746D02*
X00400304Y00388620D01*
X00381000Y00373888D02*
X00400304D01*
X00374400Y00380486D02*
X00381000Y00373888D01*
X00374400Y00380486D02*
Y00392938D01*
X00319399Y00381375D02*
Y00392938D01*
X00315976Y00377952D02*
X00319399Y00381375D01*
X00315976Y00366268D02*
Y00377952D01*
X00308398Y00380788D02*
Y00392938D01*
X00304292Y00376682D02*
X00308398Y00380788D01*
X00304292Y00361696D02*
Y00376682D01*
X00297400Y00360966D02*
Y00392938D01*
X00385398D02*
Y00394601D01*
X00308398Y00392938D02*
Y00394601D01*
X00352399Y00392938D02*
Y00394601D01*
Y00379857D02*
Y00392938D01*
X00319399D02*
Y00394601D01*
X00330400Y00383338D02*
Y00392938D01*
X00363399D02*
Y00394601D01*
Y00381327D02*
Y00392938D01*
X00341400D02*
Y00394601D01*
Y00380063D02*
Y00392938D01*
X00374400D02*
Y00394601D01*
X00297400Y00392938D02*
Y00394601D01*
X00330400Y00392938D02*
Y00394601D01*
Y00383338D02*
X00334264Y00379476D01*
X00363399Y00381327D02*
X00377444Y00367284D01*
X00413512Y00282063D02*
Y00325628D01*
X00342625Y00281700D02*
Y00324885D01*
X00385373Y00281700D02*
Y00324809D01*
X00328373Y00281700D02*
Y00329993D01*
X00356874Y00281700D02*
Y00331464D01*
X00297400Y00360966D02*
X00328373Y00329993D01*
X00341400Y00380063D02*
X00364117Y00357346D01*
X00304292Y00361696D02*
X00324612Y00341376D01*
X00346964*
X00356874Y00331464*
X00334264Y00357632D02*
Y00379476D01*
X00371123Y00281700D02*
Y00320770D01*
X00368300Y00323596D02*
X00371123Y00320770D01*
X00368300Y00323596D02*
Y00339344D01*
X00314123Y00281700D02*
Y00310059D01*
X00316484Y00312420*
Y00324612*
X00413512Y00282063D02*
X00413874Y00281700D01*
X00364117Y00357346D02*
X00379252D01*
X00399625Y00336973*
Y00281700D02*
Y00336973D01*
X00352399Y00379857D02*
X00369544Y00362712D01*
X00382524*
X00405384Y00339852*
X00377444Y00367284D02*
X00384417D01*
X00399149Y00352552D02*
X00421640D01*
X00384417Y00367284D02*
X00399149Y00352552D01*
X00409956Y00388620D02*
X00419608Y00378968D01*
X00405384Y00339852D02*
X00418402D01*
X00428124Y00330129*
Y00281700D02*
Y00330129D01*
G54D16*
X00299720Y00325120D03*
X00413512Y00325628D03*
X00269240Y00543560D03*
X00457200D03*
Y00457200D03*
X00269240D03*
X00342625Y00324885D03*
X00385373Y00324809D03*
X00316484Y00324612D03*
X00315976Y00366268D03*
X00334264Y00357632D03*
X00368300Y00339344D03*
X00400304Y00373888D03*
X00419608Y00378968D03*
X00421640Y00352552D03*
M02*